HIERARCHY
ROOT joint_Root
{
	OFFSET 0.0 0.0 0.0
	CHANNELS 6 Xposition Yposition Zposition Zrotation Xrotation Yrotation 
	JOINT Hips
	{
		OFFSET -17.1583 93.1646 452.98
		CHANNELS 6 Xposition Yposition Zposition Zrotation Xrotation Yrotation 
		JOINT Spine
		{
			OFFSET 15.7357 0.0 0.0
			CHANNELS 6 Xposition Yposition Zposition Zrotation Xrotation Yrotation 
			JOINT Chest
			{
				OFFSET 8.98455 -0.406207 0.0
				CHANNELS 6 Xposition Yposition Zposition Zrotation Xrotation Yrotation 
				JOINT Neck
				{
					OFFSET 16.3773 0.0 0.0
					CHANNELS 6 Xposition Yposition Zposition Zrotation Xrotation Yrotation 
					JOINT Head
					{
						OFFSET 6.45672 0.0 0.0
						CHANNELS 6 Xposition Yposition Zposition Zrotation Xrotation Yrotation 
						End Site
						{
							OFFSET 0.0 0.0 0.0
						}
					}
				}
				JOINT Shoulder_L
				{
					OFFSET 12.9942 -0.242716 4.98039
					CHANNELS 6 Xposition Yposition Zposition Zrotation Xrotation Yrotation 
					JOINT UpperArm_L
					{
						OFFSET 5.34809 0.0 0.0
						CHANNELS 6 Xposition Yposition Zposition Zrotation Xrotation Yrotation 
						JOINT LowerArm_L
						{
							OFFSET 24.3286 1.87007e-05 0.0
							CHANNELS 6 Xposition Yposition Zposition Zrotation Xrotation Yrotation 
							JOINT Hand_L
							{
								OFFSET 22.2916 0.0 0.0
								CHANNELS 6 Xposition Yposition Zposition Zrotation Xrotation Yrotation 
								End Site
								{
									OFFSET 0.0 0.0 0.0
								}
							}
						}
					}
				}
				JOINT Shoulder_R
				{
					OFFSET 12.9945 -0.242716 -4.98039
					CHANNELS 6 Xposition Yposition Zposition Zrotation Xrotation Yrotation 
					JOINT UpperArm_R
					{
						OFFSET -5.34813 0.0 0.0
						CHANNELS 6 Xposition Yposition Zposition Zrotation Xrotation Yrotation 
						JOINT LowerArm_R
						{
							OFFSET -24.3289 0.000322201 0.0
							CHANNELS 6 Xposition Yposition Zposition Zrotation Xrotation Yrotation 
							JOINT Hand_R
							{
								OFFSET -22.2915 -0.000108084 0.0
								CHANNELS 6 Xposition Yposition Zposition Zrotation Xrotation Yrotation 
								End Site
								{
									OFFSET 0.0 0.0 0.0
								}
							}
						}
					}
				}
			}
		}
		JOINT UpperLeg_L
		{
			OFFSET -2.19248 -6.46944 0.0
			CHANNELS 6 Xposition Yposition Zposition Zrotation Xrotation Yrotation 
			JOINT LowerLeg_L
			{
				OFFSET 39.0811 0.0 -1.23785e-05
				CHANNELS 6 Xposition Yposition Zposition Zrotation Xrotation Yrotation 
				JOINT Foot_L
				{
					OFFSET 40.9854 0.0 -1.26872e-05
					CHANNELS 6 Xposition Yposition Zposition Zrotation Xrotation Yrotation 
					JOINT Toes_L
					{
						OFFSET 11.7543 0.0 0.0
						CHANNELS 6 Xposition Yposition Zposition Zrotation Xrotation Yrotation 
						End Site
						{
							OFFSET 0.0 0.0 0.0
						}
					}
				}
			}
		}
		JOINT UpperLeg_R
		{
			OFFSET -2.19251 6.46944 0.0
			CHANNELS 6 Xposition Yposition Zposition Zrotation Xrotation Yrotation 
			JOINT LowerLeg_R
			{
				OFFSET -39.0811 -0.00228153 -0.0401928
				CHANNELS 6 Xposition Yposition Zposition Zrotation Xrotation Yrotation 
				JOINT Foot_R
				{
					OFFSET -40.9854 0.0 0.0
					CHANNELS 6 Xposition Yposition Zposition Zrotation Xrotation Yrotation 
					JOINT Toes_R
					{
						OFFSET -11.7543 0.0 0.0
						CHANNELS 6 Xposition Yposition Zposition Zrotation Xrotation Yrotation 
						End Site
						{
							OFFSET 0.0 0.0 0.0
						}
					}
				}
			}
		}
	}
}
MOTION
Frames:	9
Frame Time:	0.0333333
0.000000 0.000000 0.000000 0.000000 0.000000 -0.000000 -1.240350 92.598300 4.019520 86.609100 -1.125600 2.474940 15.735700 0.000005 -0.000001 90.193600 86.778100 -98.479200 8.984550 -0.406207 -0.000000 -1.219830 0.668542 -16.558400 16.377300 -0.000001 -0.000001 5.110230 -0.898876 -8.521340 6.456720 -0.000001 -0.000000 -2.483100 3.357570 -19.227100 12.994200 -0.242716 4.980390 -92.443700 8.038500 -73.028600 5.348090 -0.000007 -0.000001 -56.218700 3.610460 2.846040 24.328600 0.000019 0.000005 12.816300 25.382800 -27.955000 22.291600 -0.000001 0.000005 2.763830 4.793680 11.436200 12.994500 -0.242716 -4.980390 94.354700 -7.975620 -61.240600 -5.348130 -0.000001 -0.000004 -26.621200 -59.370200 -68.358900 -24.328900 0.000322 -0.000009 0.247430 2.013780 -7.035430 -22.291500 -0.000108 -0.000004 47.421800 5.513760 -7.098540 -2.192480 -6.469440 -0.000000 -171.989000 -6.655620 2.633770 39.081100 -0.000007 -0.000012 0.017083 -0.055065 17.235600 40.985400 -0.000006 -0.000013 -0.816379 9.545070 -71.002600 11.754300 -0.000000 0.000003 -0.004447 0.223647 -7.499610 -2.192510 6.469440 -0.000001 176.808000 11.381500 -174.160000 -39.081100 -0.002282 -0.040193 -0.019981 0.119645 11.028200 -40.985400 0.000008 0.000006 -9.632790 12.641000 -66.698400 -11.754300 -0.000006 -0.000006 -0.010966 0.278389 -5.261140
0.000000 0.000000 0.000000 0.000000 0.000000 -0.000000 -1.229340 92.613600 4.019100 86.623200 -1.155080 2.446490 15.735700 0.000005 -0.000001 90.380300 86.780300 -98.666100 8.984550 -0.406207 -0.000000 -1.222960 0.689747 -16.558800 16.377300 -0.000001 -0.000001 5.124080 -0.891983 -8.502090 6.456720 -0.000001 -0.000000 -2.426280 3.360740 -19.298200 12.994200 -0.242716 4.980390 -92.430100 7.999890 -73.041700 5.348090 -0.000007 -0.000001 -56.216100 3.558740 2.775870 24.328600 0.000019 0.000005 12.787400 25.520200 -27.780400 22.291600 -0.000001 0.000005 2.703770 4.792570 11.457100 12.994500 -0.242716 -4.980390 94.354200 -7.962300 -61.203300 -5.348130 -0.000001 -0.000004 -26.354700 -59.139600 -68.169800 -24.328900 0.000322 -0.000009 0.247256 2.066750 -6.851980 -22.291500 -0.000108 -0.000004 47.240600 5.518010 -7.277070 -2.192480 -6.469440 -0.000000 -172.020000 -6.685340 2.677460 39.081100 -0.000007 -0.000012 0.017464 -0.056733 17.110100 40.985400 -0.000006 -0.000013 -0.817217 9.531040 -71.019300 11.754300 -0.000000 0.000003 -0.004477 0.223946 -7.487440 -2.192510 6.469440 -0.000001 176.794000 11.377200 -174.187000 -39.081100 -0.002282 -0.040193 -0.019806 0.118954 11.009700 -40.985400 0.000008 0.000006 -9.575370 12.637000 -66.685000 -11.754300 -0.000006 -0.000006 -0.011219 0.280198 -5.187100
0.000000 0.000000 0.000000 0.000000 0.000000 -0.000000 -1.217110 92.613700 4.023910 86.625000 -1.144570 2.424120 15.735700 0.000005 -0.000001 90.318900 86.784900 -98.608400 8.984550 -0.406207 -0.000000 -1.232340 0.683772 -16.566100 16.377300 -0.000001 -0.000001 5.171750 -0.892516 -8.475790 6.456720 -0.000001 -0.000000 -2.358980 3.364060 -19.304200 12.994200 -0.242716 4.980390 -92.432100 7.995520 -73.019800 5.348090 -0.000007 -0.000001 -56.182000 3.528220 2.773740 24.328600 0.000019 0.000005 12.805800 25.544000 -27.794900 22.291600 -0.000001 0.000005 2.734090 4.791120 11.484200 12.994500 -0.242716 -4.980390 94.348000 -7.955370 -61.217100 -5.348130 -0.000001 -0.000004 -26.562600 -59.028300 -68.310400 -24.328900 0.000322 -0.000009 0.271033 2.285410 -6.790750 -22.291500 -0.000108 -0.000004 47.111100 5.514140 -7.114350 -2.192480 -6.469440 -0.000000 -172.041000 -6.669430 2.646100 39.081100 -0.000007 -0.000012 0.017765 -0.057680 17.118500 40.985400 -0.000006 -0.000013 -0.808314 9.507340 -71.011000 11.754300 -0.000000 0.000003 -0.004549 0.224660 -7.458330 -2.192510 6.469440 -0.000001 176.782000 11.399200 -174.225000 -39.081100 -0.002282 -0.040193 -0.019696 0.118112 11.034900 -40.985400 0.000008 0.000006 -9.597860 12.654400 -66.637700 -11.754300 -0.000006 -0.000006 -0.010938 0.278184 -5.269550
0.000000 0.000000 0.000000 0.000000 0.000000 -0.000000 -1.189400 92.627000 4.025200 86.653700 -1.140400 2.387460 15.735700 0.000005 -0.000001 90.638200 86.791300 -98.938300 8.984550 -0.406207 -0.000000 -1.242490 0.721007 -16.586800 16.377300 -0.000001 -0.000001 5.263580 -0.876855 -8.508550 6.456720 -0.000001 -0.000000 -2.320900 3.291250 -19.230700 12.994200 -0.242716 4.980390 -92.433300 8.002580 -73.026100 5.348090 -0.000007 -0.000001 -56.173700 3.504400 2.745740 24.328600 0.000019 0.000005 12.802700 25.536600 -27.795500 22.291600 -0.000001 0.000005 2.761340 4.794490 11.420900 12.994500 -0.242716 -4.980390 94.335100 -7.927510 -61.205000 -5.348130 -0.000001 -0.000004 -26.608000 -58.943500 -68.327000 -24.328900 0.000322 -0.000009 0.244676 2.074730 -6.755600 -22.291500 -0.000108 -0.000004 47.006800 5.514230 -7.118240 -2.192480 -6.469440 -0.000000 -172.091000 -6.662920 2.683490 39.081100 -0.000007 -0.000012 0.017438 -0.057142 16.971000 40.985400 -0.000006 -0.000013 -0.803978 9.499820 -70.942300 11.754300 -0.000000 0.000003 -0.004552 0.224695 -7.456920 -2.192510 6.469440 -0.000001 176.747000 11.376800 -174.247000 -39.081100 -0.002282 -0.040193 -0.019339 0.116757 10.991100 -40.985400 0.000008 0.000006 -9.699370 12.612100 -66.582900 -11.754300 -0.000006 -0.000006 -0.010818 0.277322 -5.304830
0.000000 0.000000 0.000000 0.000000 0.000000 -0.000000 -1.176280 92.618500 4.032380 86.638600 -1.101930 2.425520 15.735700 0.000005 -0.000001 90.689600 86.773500 -98.981900 8.984550 -0.406207 -0.000000 -1.206890 0.724008 -16.571400 16.377300 -0.000001 -0.000001 5.292620 -0.926056 -8.443000 6.456720 -0.000001 -0.000000 -2.239940 3.302840 -19.232100 12.994200 -0.242716 4.980390 -92.440400 8.004370 -72.982600 5.348090 -0.000007 -0.000001 -56.201100 3.521320 2.710170 24.328600 0.000019 0.000005 12.759600 25.417900 -27.815900 22.291600 -0.000001 0.000005 2.731740 4.794060 11.429100 12.994500 -0.242716 -4.980390 94.323500 -7.911370 -61.221100 -5.348130 -0.000001 -0.000004 -26.525600 -58.861900 -68.238300 -24.328900 0.000322 -0.000009 0.244017 2.092290 -6.681650 -22.291500 -0.000108 -0.000004 47.113200 5.514470 -7.128000 -2.192480 -6.469440 -0.000000 -172.100000 -6.550150 2.666480 39.081100 -0.000007 -0.000012 0.018275 -0.059499 17.074400 40.985400 -0.000006 -0.000013 -0.788087 9.447830 -71.010300 11.754300 -0.000000 0.000003 -0.004837 0.227511 -7.342190 -2.192510 6.469440 -0.000001 176.745000 11.389000 -174.227000 -39.081100 -0.002282 -0.040193 -0.019655 0.117784 11.045300 -40.985400 0.000008 0.000006 -9.646280 12.595200 -66.621300 -11.754300 -0.000006 -0.000006 -0.010990 0.278563 -5.254050
0.000000 0.000000 0.000000 0.000000 0.000000 -0.000000 -1.156020 92.621400 4.038820 86.631800 -1.087780 2.455860 15.735700 0.000005 -0.000001 90.900100 86.755400 -99.184400 8.984550 -0.406207 -0.000000 -1.169690 0.744972 -16.555300 16.377300 -0.000001 -0.000001 5.342790 -0.933961 -8.383550 6.456720 -0.000001 -0.000000 -2.215460 3.265890 -19.196700 12.994200 -0.242716 4.980390 -92.440700 8.011370 -72.994800 5.348090 -0.000007 -0.000001 -56.262900 3.506880 2.723190 24.328600 0.000019 0.000005 12.764200 25.337900 -27.894400 22.291600 -0.000001 0.000005 2.807330 4.796430 11.384400 12.994500 -0.242716 -4.980390 94.309800 -7.886110 -61.221200 -5.348130 -0.000001 -0.000004 -26.567000 -58.816800 -68.234600 -24.328900 0.000322 -0.000009 0.243812 2.080190 -6.714610 -22.291500 -0.000108 -0.000004 47.103300 5.514680 -7.137070 -2.192480 -6.469440 -0.000000 -172.105000 -6.502580 2.721220 39.081100 -0.000007 -0.000012 0.018437 -0.060183 17.033200 40.985400 -0.000006 -0.000013 -0.787488 9.408400 -70.966700 11.754300 -0.000000 0.000003 -0.004207 0.221212 -7.598830 -2.192510 6.469440 -0.000001 176.755000 11.325500 -174.204000 -39.081100 -0.002282 -0.040193 -0.019737 0.118044 11.060100 -40.985400 0.000008 0.000006 -9.642950 12.490500 -66.627300 -11.754300 -0.000006 -0.000006 -0.010812 0.277277 -5.306640
0.000000 0.000000 0.000000 0.000000 0.000000 -0.000000 -1.135790 92.619600 4.028960 86.602200 -1.096290 2.412290 15.735700 0.000005 -0.000001 90.820900 86.769400 -99.089500 8.984550 -0.406207 -0.000000 -1.198550 0.736479 -16.523800 16.377300 -0.000001 -0.000001 5.380120 -0.939774 -8.325830 6.456720 -0.000001 -0.000000 -2.201240 3.231490 -19.107800 12.994200 -0.242716 4.980390 -92.447400 8.020290 -72.968100 5.348090 -0.000007 -0.000001 -56.313300 3.565120 2.749070 24.328600 0.000019 0.000005 12.819300 25.351100 -27.988400 22.291600 -0.000001 0.000005 2.789870 4.797170 11.370500 12.994500 -0.242716 -4.980390 94.286500 -7.848130 -61.237000 -5.348130 -0.000001 -0.000004 -26.676300 -58.750700 -68.326100 -24.328900 0.000322 -0.000009 0.247485 2.086800 -6.793080 -22.291500 -0.000108 -0.000004 47.053000 5.512730 -7.055280 -2.192480 -6.469440 -0.000000 -172.112000 -6.488740 2.647220 39.081100 -0.000007 -0.000012 0.021035 -0.068344 17.107500 40.985400 -0.000006 -0.000013 -0.762936 9.374750 -71.049700 11.754300 -0.000000 0.000003 -0.004393 0.223098 -7.521970 -2.192510 6.469440 -0.000001 176.774000 11.284100 -174.267000 -39.081100 -0.002282 -0.040193 -0.019676 0.117451 11.086100 -40.985400 0.000008 0.000006 -9.728910 12.512800 -66.605200 -11.754300 -0.000006 -0.000006 -0.010970 0.278417 -5.260020
0.000000 0.000000 0.000000 0.000000 0.000000 -0.000000 -1.098050 92.609500 4.050010 86.623500 -1.135060 2.494140 15.735700 0.000005 -0.000001 90.912400 86.750500 -99.170300 8.984550 -0.406207 -0.000000 -1.160540 0.743822 -16.502600 16.377300 -0.000001 -0.000001 5.490860 -0.982507 -8.263100 6.456720 -0.000001 -0.000000 -2.313310 3.252370 -19.076700 12.994200 -0.242716 4.980390 -92.450300 8.022520 -72.953900 5.348090 -0.000007 -0.000001 -56.389600 3.574790 2.763650 24.328600 0.000019 0.000005 12.820400 25.396800 -27.950700 22.291600 -0.000001 0.000005 2.719210 4.801380 11.291200 12.994500 -0.242716 -4.980390 94.275800 -7.829980 -61.242000 -5.348130 -0.000001 -0.000004 -26.622700 -58.645200 -68.349300 -24.328900 0.000322 -0.000009 0.233348 1.986310 -6.731160 -22.291500 -0.000108 -0.000004 47.003000 5.514840 -7.143630 -2.192480 -6.469440 -0.000000 -172.143000 -6.500610 2.705370 39.081100 -0.000007 -0.000012 0.020428 -0.066105 17.173100 40.985400 -0.000006 -0.000013 -0.743755 9.342030 -71.065300 11.754300 -0.000000 0.000003 -0.004320 0.222359 -7.552100 -2.192510 6.469440 -0.000001 176.715000 11.223200 -174.190000 -39.081100 -0.002282 -0.040193 -0.019945 0.118513 11.114300 -40.985400 0.000008 0.000006 -9.744150 12.500300 -66.634400 -11.754300 -0.000006 -0.000006 -0.010943 0.278223 -5.267920
0.000000 0.000000 0.000000 0.000000 0.000000 -0.000000 -1.075510 92.613700 4.045030 86.639600 -1.169900 2.502640 15.735700 0.000005 -0.000001 90.716000 86.752100 -98.946400 8.984550 -0.406207 -0.000000 -1.165790 0.719783 -16.447700 16.377300 -0.000001 -0.000001 5.452930 -0.951996 -8.269580 6.456720 -0.000001 -0.000000 -2.254370 3.200030 -19.023600 12.994200 -0.242716 4.980390 -92.448300 8.008010 -72.938300 5.348090 -0.000007 -0.000001 -56.547400 3.468970 2.746470 24.328600 0.000019 0.000005 12.794000 25.519700 -27.793400 22.291600 -0.000001 0.000005 2.679440 4.801200 11.294600 12.994500 -0.242716 -4.980390 94.291400 -7.850070 -61.214900 -5.348130 -0.000001 -0.000004 -26.638100 -58.537300 -68.469200 -24.328900 0.000322 -0.000009 0.224002 1.940550 -6.616240 -22.291500 -0.000108 -0.000004 46.901800 5.514650 -7.135750 -2.192480 -6.469440 -0.000000 -172.188000 -6.480760 2.745910 39.081100 -0.000007 -0.000012 0.022247 -0.072183 17.129600 40.985400 -0.000006 -0.000013 -0.738695 9.276840 -71.079900 11.754300 -0.000000 0.000003 -0.004483 0.224008 -7.484930 -2.192510 6.469440 -0.000001 176.690000 11.153100 -174.197000 -39.081100 -0.002282 -0.040193 -0.019885 0.118053 11.128600 -40.985400 0.000008 0.000006 -9.748370 12.473600 -66.649300 -11.754300 -0.000006 -0.000006 -0.010855 0.277588 -5.293920
